<svg width="36" height="36" viewBox="0 0 36 36" fill="none" xmlns="http://www.w3.org/2000/svg">
<path d="M9 16.5C9 12.2574 9 10.136 10.318 8.81802C11.636 7.5 13.7574 7.5 18 7.5H22.5C26.7426 7.5 28.8639 7.5 30.1819 8.81802C31.5 10.136 31.5 12.2574 31.5 16.5V24C31.5 28.2426 31.5 30.3639 30.1819 31.6819C28.8639 33 26.7426 33 22.5 33H18C13.7574 33 11.636 33 10.318 31.6819C9 30.3639 9 28.2426 9 24V16.5Z" stroke="#FCD462" stroke-width="2.25"/>
<path opacity="0.5" d="M9 28.5C6.51472 28.5 4.5 26.4853 4.5 24V15C4.5 9.34314 4.5 6.51472 6.25735 4.75735C8.01472 3 10.8431 3 16.5 3H22.5C24.9853 3 27 5.01472 27 7.5" stroke="#FCD462" stroke-width="2.25"/>
</svg>
